<svg width="41" height="29" xmlns="http://www.w3.org/2000/svg">

 <metadata id="imagebot_8">image/svg+xml</metadata>
 <g id="imagebot_2" label="Layer 1">
  <path transform="translate(6.56387e-7 -0.000449478) matrix(1 0 0 1 -65.8568 -439.742)" label="Layer 1" fill="#000000" stroke="#000000" stroke-width="1.308" stroke-miterlimit="4" d="M73.59055,459.3546L72.12965,458.99754C68.47519,458.1042 66.51082,456.11055 66.51082,453.2949C66.51082,451.83186 66.99975,450.70686 68.12226,449.58711C68.97094,448.74054 71.24789,448.32129 72.40031,448.01856C73.16436,447.81786 73.49547,447.79116 73.49547,447.79116C73.49547,447.79116 73.3929,447.2037 73.56834,446.60793C74.5545,443.25918 77.3306,440.66952 81.68166,440.41116C84.6812,440.23326 87.52885,441.64908 89.10267,443.27004L89.7811,443.91426L90.9007,443.56686C93.94319,442.62249 97.95156,443.34726 99.22354,445.77612C99.46252,446.23245 99.76404,446.40252 100.54097,446.5191C102.00692,446.739 104.14239,447.88839 105.04408,448.94262C107.52864,451.84755 106.53597,455.41866 102.71242,457.33074C101.82223,457.77588 101.02176,457.97301 99.75026,458.06025L98.0079,458.17995L97.31232,459.14925C96.17821,460.72968 95.25499,461.52672 93.73251,462.23976C91.08351,463.48032 87.50639,463.29819 85.01333,461.79576C84.32529,461.38113 83.72409,461.04189 83.67733,461.04189C81.99819,464.71089 75.21413,467.87922 69.10054,468.01467C71.93354,465.03216 75.57457,462.27207 73.59054,459.35493L73.59055,459.3546z" id="imagebot_7"/>
  <path transform="translate(6.56387e-7 -0.000449478) matrix(1 0 0 1 -65.8568 -439.742)" label="Layer 1" fill="#ffffff" stroke-width="0.79375px" d="M77.98534,452.45397Q78.39049,451.44939 78.59719,450.85821Q78.41116,450.86121 78.10523,450.85821Q77.72903,450.84921 77.61327,450.84921Q77.38176,450.84921 77.22467,450.70851Q77.0717,450.56781 77.0717,450.3447Q77.0717,449.88996 77.58019,449.8362Q78.03081,449.8242 78.92792,449.7948L79.20077,449.02587Q79.43228,448.50909 79.68446,448.50909Q80.23016,448.50909 80.23016,449.0052Q80.23016,449.2326 80.03999,449.79069L81.51587,449.79069Q81.62336,449.37312 81.80525,448.80675Q81.93755,448.39335 82.31375,448.39335Q82.52873,448.39335 82.69408,448.53405Q82.86358,448.67475 82.86358,448.88958Q82.86358,449.01348 82.62379,449.78256Q82.88011,449.77056 82.99586,449.77056Q83.73587,449.77056 83.73587,450.29145Q83.73587,450.67593 83.37207,450.79167Q83.19018,450.84957 82.69821,450.84957Q82.64448,450.84957 82.52046,450.84657L82.34268,450.84657Q82.1649,451.37571 81.80937,452.45472L82.39229,452.45472Q83.23978,452.45472 83.23978,453.00456Q83.23978,453.21966 83.08681,453.3477Q82.93384,453.4758 82.71474,453.4758Q82.61553,453.4758 82.11116,453.4788Q81.74736,453.4818 81.51171,453.4788Q81.40008,453.83847 81.18511,454.64874Q81.06937,455.14485 80.54433,455.14485Q80.08544,455.14485 80.08544,454.71075Q80.08544,454.50825 80.4079,453.47466L78.71705,453.47466Q78.36151,454.32216 78.19615,454.82238Q78.08866,455.14896 77.71246,455.14896Q77.50162,455.14896 77.33212,455.00826Q77.16262,454.86756 77.16262,454.65273Q77.16262,454.59483 77.58843,453.47451L77.11301,453.47451Q76.8815,453.47451 76.72854,453.28431Q76.59213,453.11481 76.59213,452.91222Q76.59213,452.49468 77.05515,452.45334Q77.10063,452.45034 77.98533,452.45334L77.98534,452.45397zM79.7258,450.84993L79.12222,452.45397L80.70972,452.45397L81.22235,450.84993z" id="imagebot_6"/>
  <path transform="translate(6.56387e-7 -0.000449478) matrix(1 0 0 1 -65.8568 -439.742)" label="Layer 1" fill="#ffffff" stroke-width="0.79375px" d="M84.84797,455.3265Q84.61646,455.3265 84.4635,455.1819Q84.31467,455.0373 84.31467,454.81809Q84.31467,454.65699 84.30237,454.33854Q84.29397,454.01607 84.29397,453.85485Q84.29397,453.28434 84.30237,452.14332Q84.31467,451.0023 84.31467,450.43179Q84.31467,450.21279 84.46764,450.06801Q84.62061,449.91921 84.84798,449.91921Q85.07535,449.91921 85.22832,450.06801Q85.38129,450.21261 85.38129,450.43179L85.38129,454.81809Q85.38129,455.03709 85.22832,455.1819Q85.07949,455.3265 84.84798,455.3265L84.84797,455.3265zM84.83567,456.82719Q84.58763,456.82719 84.37265,456.56259Q84.17834,456.31869 84.17834,456.10785Q84.17834,455.89275 84.34784,455.74818Q84.51734,455.60358 84.73232,455.60358Q84.98036,455.60358 85.1912,455.86818Q85.38551,456.11208 85.38551,456.31881Q85.38551,456.52971 85.21601,456.67848Q85.05065,456.82728 84.83567,456.82728z" id="imagebot_5"/>
  <path transform="translate(6.56387e-7 -0.000449478) matrix(1 0 0 1 -65.8568 -439.742)" label="Layer 1" fill="#ffffff" stroke-width="0.79375px" d="M91.26412,453.4503Q90.97888,453.4503 90.68948,453.3138Q90.40424,453.1731 90.11483,452.9004Q89.94119,453.0864 89.66422,453.23112Q89.36656,453.38832 89.14332,453.38832Q88.62242,453.38832 88.16353,452.98731Q87.70465,452.58216 87.70465,452.08194Q87.70465,451.2882 88.34543,450.64326Q89.00276,449.98593 89.83785,449.98593Q90.33394,449.98593 90.33394,450.4035Q90.33394,450.71355 89.9536,450.87891Q89.26734,451.17231 89.24667,451.18482Q88.86633,451.44942 88.86633,451.99512Q88.86633,452.05302 88.93662,452.14392Q89.02344,452.25552 89.13918,452.25972Q89.4327,452.26872 89.64354,451.97862L89.966,451.44117Q90.16856,451.15167 90.42902,451.15167Q90.85897,451.15167 90.85897,451.65189Q90.85897,451.73049 90.83017,451.89159Q90.80527,452.04879 90.80527,452.13129Q90.80527,452.28429 90.97063,452.31729Q90.99943,452.32029 91.26415,452.32029Q91.74785,452.32029 91.92975,452.11359Q92.09925,451.91919 92.09925,451.42734Q92.09925,450.53436 91.35097,449.96799Q90.65231,449.44296 89.67252,449.44296Q88.55631,449.44296 87.91966,450.24912Q87.33675,450.98085 87.33675,452.10534Q87.33675,453.12645 88.01474,453.82512Q88.72168,454.5486 89.82962,454.5486Q90.23063,454.5486 91.25175,454.18065Q91.47087,454.10205 91.54527,454.10205Q91.78917,454.10205 91.95869,454.28385Q92.12819,454.46175 92.12819,454.689Q92.12819,455.10654 91.18148,455.39595Q90.42493,455.63145 89.83789,455.63145Q88.30826,455.63145 87.2458,454.63926Q86.15439,453.62643 86.15439,452.10507Q86.15439,450.53409 87.0639,449.46336Q88.04782,448.31409 89.67252,448.31409Q91.12773,448.31409 92.16953,449.15331Q93.27747,450.04626 93.27747,451.42707Q93.27747,452.37378 92.77724,452.89881Q92.25635,453.44865 91.26416,453.44865L91.26412,453.4503z" id="imagebot_4"/>
  <path transform="translate(6.56387e-7 -0.000449478) matrix(1 0 0 1 -65.8568 -439.742)" label="Layer 1" fill="#ffffff" stroke-width="0.79375px" d="M97.45702,451.76289Q97.15936,451.82079 96.75422,451.86609Q97.45702,452.57718 97.45702,452.83761Q97.45702,453.04011 97.29166,453.18489Q97.1263,453.32559 96.91132,453.32559Q96.68395,453.32559 96.4483,453.08979Q96.27466,452.88309 96.10103,452.68053Q95.93567,452.49033 95.80751,452.37045Q94.95175,453.18075 94.64996,453.18075Q94.43084,453.18075 94.26962,453.03195Q94.1084,452.88315 94.1084,452.68467Q94.1084,452.50287 94.31924,452.30022Q94.50113,452.15562 94.68718,452.00682Q94.80292,451.91172 94.87321,451.85382Q94.36058,451.69662 94.11667,451.59762Q93.78181,451.46112 93.78181,451.16766Q93.78181,450.97326 93.93064,450.81627Q94.08361,450.65907 94.31097,450.65907Q94.43085,450.65907 95.25355,450.94857Q95.23285,450.59304 95.23285,450.44835Q95.23285,450.24165 95.38582,450.10521Q95.53879,449.96481 95.76616,449.96481Q95.99353,449.96481 96.1465,450.10521Q96.30361,450.24171 96.30361,450.44835Q96.30361,450.70065 96.31591,450.91137Q97.06832,450.79977 97.37838,450.79977Q97.60575,450.79977 97.75045,450.94857Q97.89928,451.09317 97.89928,451.29171Q97.89928,451.67616 97.45693,451.76298L97.45702,451.76289z" id="imagebot_3"/>
  <title>Layer 1</title>
 </g>
</svg>